<?xml version="1.0"?>
<svg width="816" height="1056" xmlns="http://www.w3.org/2000/svg">
 <metadata id="metadata8">image/svg+xml</metadata>
 <g>
  <title>Layer 1</title>
  <g id="g10" transform="matrix(1.33333 0 0 -1.33333 0 1056)">
   <g id="svg_6">
    <g id="svg_5">
     <path fill="#ffffff" fill-rule="nonzero" d="m1082,1986.015015l20.780029,39.420044l-0.390015,-442.619995l-20.73999,0.029907l0.349976,403.170044zm-41.540039,-78.26001l20.77002,39.119995l-0.299927,-325.51001l-20.740112,0.02002l0.27002,286.369995zm-41.537964,-79.420044l20.768005,39.130005l-0.22998,-226.099976l-20.722046,0.01001l0.184021,186.959961zm-56.140991,9.850098l-11.77301,21.599976l143.08197,271.339966l23.320068,-0.030029l-154.629028,-292.909912zm-23.835999,45.22998l-12.078003,21.890015l120.013,225.869995l23.599976,-0.030029l-131.534973,-247.72998zm-138.789001,-18l20.684021,-39.180054l-0.184021,-171.589966l-20.726013,0.030029l0.226013,210.73999zm343.41394,226.219971l-165.292969,-312.780029l-23.612976,0.030029l-184.75,352.580078l23.323975,-0.030029l173.546997,-330.690063l173.945007,330.319946l23.619995,-0.02002l-0.51001,-602.599854l-20.72998,0.02002l0.459961,563.169922zm-384.799927,-147.280029l20.695007,-39.189941l-0.262024,-250.469971l-20.72998,0.019897l0.296997,289.640015zm172.85498,-165.439941l-23.60498,0.01001l-185.036011,352.589844l23.614014,-0.029785l185.026978,-352.570068zm-214.223022,244.359985l20.696045,-39.469971l-0.352051,-329.070068l-20.737976,0.030029l0.393982,368.51001zm167.301025,-244.320068l-23.323975,0.030029l-164.633057,313.119995l-0.45697,-914.380005l-20.734009,0.030029l0.504028,953.809937l23.320007,-0.030029" id="svg_1"/>
     <path fill="#ffffff" fill-rule="nonzero" d="m1895.140015,1176.88501l-22.449951,0.01001l-380.26001,953.790039l22.179932,-0.02002l380.530029,-953.780029zm-425.160034,953.830078l380.540039,-953.790039l-22.170044,0.030029l-380.549927,953.780029l22.179932,-0.02002zm-44.630005,0.040039l380.540039,-953.780151l-22.449951,0.02002l-380.26001,953.789917l22.169922,-0.029785zm-32.599976,-336.820068l8.380005,20.72998l70.819946,-0.070068l8.320068,-20.75l-87.52002,0.090088zm-16.170044,-41.430054l8.080078,20.719971l103.359985,-0.099976l8.910034,-20.75l-120.350098,0.130005zm-16.159912,-41.449951l8.079956,20.72998l135.890015,-0.140015l8.609985,-20.73999l-152.579956,0.150024zm56.669922,230.849976l10.900024,-29.089966l-292.599976,-735.960083l-22.180054,0.030029l303.880005,765.02002zm-21.819946,57.030029l10.900024,-28.51001l-231.609985,-584.619995l-22.460083,0.030029l243.170044,613.099976zm-22.97998,54.719971l11.780029,-26.5l-216.960083,-548.410034l-22.170044,0.02002l227.350098,574.890015zm-227.180054,-517.98999l-22.459961,0.01001l235.900024,595.159912l22.459961,-0.030029l380.26001,-953.779907l-22.180054,0.019897l-369.349976,925.850098" id="svg_2"/>
     <path fill="#ffffff" fill-rule="nonzero" d="m842.276978,1322.954956l120.625,-0.119995c17.090027,-0.02002 31.731018,9.089966 43.927979,27.310059c12.210022,18.219971 18.330078,40.179932 18.359985,65.899902c0.02002,25.910034 -6.049988,47.950073 -18.219971,66.100098c-12.164978,18.149902 -26.786011,27.23999 -43.875977,27.259888l-120.625,0.119995l-0.192017,-186.569946zm-20.765015,-20.699951l0.246033,228.009888l141.362976,-0.139893c22.843994,-0.030029 42.439026,-11.230103 58.838989,-33.610107c16.380005,-22.369995 24.570068,-49.199951 24.540039,-80.47998c-0.040039,-31.48999 -8.280029,-58.359985 -24.710022,-80.599976c-16.450012,-22.25 -36.070984,-33.349976 -58.914978,-33.329956l-141.363037,0.150024zm-20.734985,-20.710083l162.078003,-0.169922c28.60199,-0.030029 53.234985,13.140015 73.88501,39.52002c20.670044,26.349976 31.02002,58.059937 31.059937,95.109985c0.030029,24.369995 -4.709961,46.939941 -14.189941,67.669922c-9.469971,20.73999 -22.219971,37.109985 -38.22998,49.130005c-16.009033,12.01001 -33.43103,18.030029 -52.243042,18.050049l-162.078003,0.169922l-0.281982,-269.47998zm-20.760986,-20.699951l0.33197,310.920044l182.815979,-0.180054c22.457031,-0.02002 43.366028,-6.959961 62.736084,-20.800049c19.380005,-13.829956 34.759888,-32.709961 46.149902,-56.619995c11.400024,-23.909912 17.070068,-49.959961 17.050049,-78.179932c-0.030029,-28.030029 -5.780029,-54.030029 -17.219971,-78c-11.430054,-23.97998 -26.859985,-42.869995 -46.26001,-56.680054c-19.400024,-13.799927 -40.331055,-20.679932 -62.788025,-20.649902l-182.815979,0.189941zm-20.739014,-20.719971l203.536011,-0.200073c26.299988,-0.039917 50.72699,7.810059 73.296997,23.530029c22.559937,15.709961 40.589966,37.099976 54.049927,64.140015c13.450073,27.059937 20.210083,56.51001 20.240112,88.369995c0.039917,31.660034 -6.650024,61.089966 -20.050049,88.25c-13.410034,27.180054 -31.430054,48.650024 -54.069946,64.420044c-22.630066,15.76001 -46.991089,23.649902 -73.100037,23.679932l-203.54303,0.209961l-0.359985,-352.399902zm-20.760986,-20.700073l0.417969,393.849976l224.27301,-0.22998c29.937988,-0.039917 57.853027,-8.829956 83.763,-26.439941c25.890015,-17.580078 46.48999,-41.550049 61.819946,-71.890015c15.310059,-30.339966 22.950073,-63.27002 22.920044,-98.77002c-0.040039,-35.52002 -7.75,-68.429932 -23.140015,-98.72998c-15.380005,-30.310059 -36.039917,-54.23999 -61.969971,-71.77002c-25.929993,-17.530029 -53.866028,-26.280029 -83.815002,-26.25l-224.268982,0.22998zm-20.746033,-20.709961l245,-0.26001c25.144043,-0.02002 49.420044,5.709961 72.860046,17.209961c23.419922,11.48999 43.689941,26.920044 60.799927,46.280029c17.090088,19.359985 30.790039,42.530029 41.090088,69.47998c10.299927,26.960083 15.459961,55.130005 15.48999,84.5c0.030029,29.359985 -5.070068,57.47998 -15.310059,84.359985c-10.23999,26.890015 -23.900024,50.070068 -40.949951,69.570068c-17.060059,19.5 -37.300049,35.030029 -60.709961,46.569946c-23.390076,11.550049 -47.68103,17.320068 -72.817078,17.340088l-245,0.259888l-0.453003,-435.309937zm244.972046,-20.97998l-265.726074,0.280029l0.496033,476.76001l265.738037,-0.27002c37.429993,-0.050049 72.359985,-10.72998 104.77002,-32.080078c32.399902,-21.339966 58.23999,-50.339966 77.48999,-87.01001c19.25,-36.699951 28.859985,-76.539917 28.809937,-119.519897c-0.030029,-32.25 -5.77002,-63.090088 -17.219971,-92.540039c-11.459961,-29.459961 -26.699951,-54.820068 -45.72998,-76.099976c-19.01001,-21.290039 -41.540039,-38.200073 -67.560059,-50.75c-26.019958,-12.550049 -53.043945,-18.800049 -81.067993,-18.77002" id="svg_3"/>
     <path fill="#ffffff" fill-rule="nonzero" d="m1702.670044,1176.964966l-22.449951,0.030029l-187.790039,476.959961l22.180054,-0.030029l188.059937,-476.959961zm-232.690063,477l188.070068,-476.959961l-22.170044,0.029907l-188.079956,476.960083l22.179932,-0.030029zm-44.619995,0.060059l188.060059,-476.960083l-22.449951,0.02002l-187.790039,476.950073l22.179932,-0.01001zm-32.609985,-336.810059l8.369995,20.719971l70.830078,-0.079956l8.319946,-20.73999l-87.52002,0.099976zm-16.159912,-41.449951l8.069946,20.72998l103.359985,-0.109985l8.900024,-20.73999l-120.329956,0.119995zm-16.180054,-41.440063l8.089966,20.72998l135.890015,-0.140015l8.609985,-20.75l-152.589966,0.160034zm56.680054,230.849976l10.909912,-29.099976l-102.47998,-258.709961l-22.169922,0.02002l113.73999,287.789917zm-21.810059,57.02002l10.890015,-28.51001l-124.98999,-316.269897l-22.450073,0.019897l136.550049,344.76001zm-22.98999,54.720093l11.77002,-26.490112l-147.790039,-372.959961l-22.169922,0.02002l158.189941,399.430054zm-180.359985,-399.410034l-22.450073,0.02002l189.070068,476.569946l22.459961,-0.030029l187.790039,-476.959961l-22.170044,0.030029l-176.880005,449.02002" id="svg_4"/>
    </g>
   </g>
  </g>
 </g>
</svg>
