<?xml version="1.0" encoding="UTF-8" standalone="no"?>
<svg
   xmlns:dc="http://purl.org/dc/elements/1.1/"
   xmlns:cc="http://creativecommons.org/ns#"
   xmlns:rdf="http://www.w3.org/1999/02/22-rdf-syntax-ns#"
   xmlns:svg="http://www.w3.org/2000/svg"
   xmlns="http://www.w3.org/2000/svg"
   viewBox="0 0 816 1056"
   height="1056"
   width="816"
   xml:space="preserve"
   id="svg2"
   version="1.1"><metadata
     id="metadata8"><rdf:RDF><cc:Work
         rdf:about=""><dc:format>image/svg+xml</dc:format><dc:type
           rdf:resource="http://purl.org/dc/dcmitype/StillImage" /></cc:Work></rdf:RDF></metadata><defs
     id="defs6"><clipPath
       id="clipPath20"
       clipPathUnits="userSpaceOnUse"><path
         id="path18"
         d="m 35.4336,410.434 h 2479.13 v 2479.13 H 35.4336 Z" /></clipPath></defs><g
     transform="matrix(1.3333333,0,0,-1.3333333,0,1056)"
     id="g10"><g
       transform="scale(0.24)"
       id="g12"><g
         id="g14"><g
           clip-path="url(#clipPath20)"
           id="g16"><path
             id="path22"
             style="fill:#ffffff;fill-opacity:1;fill-rule:nonzero;stroke:none"
             d="m 35.4336,410.434 h 2479.13 v 2479.13 H 35.4336 Z" /><path
             id="path24"
             style="fill:#231f20;fill-opacity:1;fill-rule:nonzero;stroke:none"
             d="m 1082,1976.64 20.78,39.42 -0.39,-442.62 -20.74,0.03 z m -41.54,-78.26 20.77,39.12 -0.3,-325.51 -20.74,0.02 z m -41.538,-79.42 20.768,39.13 -0.23,-226.1 -20.722,0.01 z m -56.141,9.85 -11.773,21.6 143.082,271.34 23.32,-0.03 z m -23.832,45.23 -12.078,21.89 120.009,225.87 23.61,-0.03 z m -138.793,-18 20.688,-39.18 -0.184,-171.59 -20.73,0.03 z m 343.414,226.22 -165.293,-312.78 -23.613,0.03 -184.75,352.58 23.324,-0.03 173.547,-330.69 173.945,330.32 23.62,-0.02 -0.51,-602.6 -20.73,0.02 z m -384.797,-147.28 20.692,-39.19 -0.262,-250.47 -20.73,0.02 z m 172.856,-165.44 -23.606,0.01 -185.039,352.59 23.614,-0.03 z m -214.227,244.36 20.696,-39.47 -0.352,-329.07 -20.734,0.03 z m 167.305,-244.32 -23.328,0.03 -164.633,313.12 -0.457,-914.38 -20.734,0.03 0.508,953.81 23.316,-0.03" /><path
             id="path26"
             style="fill:#231f20;fill-opacity:1;fill-rule:nonzero;stroke:none"
             d="m 1895.14,1167.51 -22.45,0.01 -380.26,953.79 22.18,-0.02 z m -425.16,953.83 380.54,-953.79 -22.17,0.03 -380.55,953.78 z m -44.63,0.04 380.54,-953.78 -22.45,0.02 -380.26,953.79 z m -32.6,-336.82 8.38,20.73 70.82,-0.07 8.32,-20.75 z m -16.17,-41.43 8.08,20.72 103.36,-0.1 8.91,-20.75 z m -16.16,-41.45 8.08,20.73 135.89,-0.14 8.61,-20.74 z m 56.67,230.85 10.9,-29.09 -292.6,-735.96 -22.18,0.03 z m -21.82,57.03 10.9,-28.51 -231.61,-584.62 -22.46,0.03 z m -22.98,54.72 11.78,-26.5 -216.96,-548.41 -22.17,0.02 z m -227.18,-517.99 -22.46,0.01 235.9,595.16 22.46,-0.03 380.26,-953.78 -22.18,0.02 -369.35,925.85" /><path
             id="path28"
             style="fill:#231f20;fill-opacity:1;fill-rule:nonzero;stroke:none"
             d="m 842.277,1313.58 120.625,-0.12 c 17.09,-0.02 31.731,9.09 43.928,27.31 12.21,18.22 18.33,40.18 18.36,65.9 0.02,25.91 -6.05,47.95 -18.22,66.1 -12.165,18.15 -26.786,27.24 -43.876,27.26 l -120.625,0.12 z m -20.765,-20.7 0.246,228.01 141.363,-0.14 c 22.844,-0.03 42.439,-11.23 58.839,-33.61 16.38,-22.37 24.57,-49.2 24.54,-80.48 -0.04,-31.49 -8.28,-58.36 -24.71,-80.6 -16.45,-22.25 -36.071,-33.35 -58.915,-33.33 z m -20.735,-20.71 162.078,-0.17 c 28.602,-0.03 53.235,13.14 73.885,39.52 20.67,26.35 31.02,58.06 31.06,95.11 0.03,24.37 -4.71,46.94 -14.19,67.67 -9.47,20.74 -22.22,37.11 -38.23,49.13 -16.009,12.01 -33.431,18.03 -52.243,18.05 l -162.078,0.17 z m -20.761,-20.7 0.332,310.92 182.816,-0.18 c 22.457,-0.02 43.366,-6.96 62.736,-20.8 19.38,-13.83 34.76,-32.71 46.15,-56.62 11.4,-23.91 17.07,-49.96 17.05,-78.18 -0.03,-28.03 -5.78,-54.03 -17.22,-78 -11.43,-23.98 -26.86,-42.87 -46.26,-56.68 -19.4,-13.8 -40.331,-20.68 -62.788,-20.65 z m -20.739,-20.72 203.536,-0.2 c 26.3,-0.04 50.727,7.81 73.297,23.53 22.56,15.71 40.59,37.1 54.05,64.14 13.45,27.06 20.21,56.51 20.24,88.37 0.04,31.66 -6.65,61.09 -20.05,88.25 -13.41,27.18 -31.43,48.65 -54.07,64.42 -22.63,15.76 -46.991,23.65 -73.1,23.68 l -203.543,0.21 z m -20.761,-20.7 0.418,393.85 224.273,-0.23 c 29.938,-0.04 57.853,-8.83 83.763,-26.44 25.89,-17.58 46.49,-41.55 61.82,-71.89 15.31,-30.34 22.95,-63.27 22.92,-98.77 -0.04,-35.52 -7.75,-68.43 -23.14,-98.73 -15.38,-30.31 -36.04,-54.24 -61.97,-71.77 -25.93,-17.53 -53.866,-26.28 -83.815,-26.25 z m -20.746,-20.71 245,-0.26 c 25.144,-0.02 49.42,5.71 72.86,17.21 23.42,11.49 43.69,26.92 60.8,46.28 17.09,19.36 30.79,42.53 41.09,69.48 10.3,26.96 15.46,55.13 15.49,84.5 0.03,29.36 -5.07,57.48 -15.31,84.36 -10.24,26.89 -23.9,50.07 -40.95,69.57 -17.06,19.5 -37.3,35.03 -60.71,46.57 -23.39,11.55 -47.681,17.32 -72.817,17.34 l -245,0.26 z m 244.972,-20.98 -265.726,0.28 0.496,476.76 265.738,-0.27 c 37.43,-0.05 72.36,-10.73 104.77,-32.08 32.4,-21.34 58.24,-50.34 77.49,-87.01 19.25,-36.7 28.86,-76.54 28.81,-119.52 -0.03,-32.25 -5.77,-63.09 -17.22,-92.54 -11.46,-29.46 -26.7,-54.82 -45.73,-76.1 -19.01,-21.29 -41.54,-38.2 -67.56,-50.75 -26.02,-12.55 -53.044,-18.8 -81.068,-18.77" /><path
             id="path30"
             style="fill:#231f20;fill-opacity:1;fill-rule:nonzero;stroke:none"
             d="m 1702.67,1167.59 -22.45,0.03 -187.79,476.96 22.18,-0.03 z m -232.69,477 188.07,-476.96 -22.17,0.03 -188.08,476.96 z m -44.62,0.06 188.06,-476.96 -22.45,0.02 -187.79,476.95 z m -32.61,-336.81 8.37,20.72 70.83,-0.08 8.32,-20.74 z m -16.16,-41.45 8.07,20.73 103.36,-0.11 8.9,-20.74 z m -16.18,-41.44 8.09,20.73 135.89,-0.14 8.61,-20.75 z m 56.68,230.85 10.91,-29.1 -102.48,-258.71 -22.17,0.02 z m -21.81,57.02 10.89,-28.51 -124.99,-316.27 -22.45,0.02 z m -22.99,54.72 11.77,-26.49 -147.79,-372.96 -22.17,0.02 z m -180.36,-399.41 -22.45,0.02 189.07,476.57 22.46,-0.03 187.79,-476.96 -22.17,0.03 -176.88,449.02" /></g></g></g></g></svg>
